<svg id="Layer_1" data-name="Layer 1" xmlns="http://www.w3.org/2000/svg" viewBox="0 0 1920 281.83"><defs><style>.cls-1{fill:#fff;}.cls-2{fill:#23ff00;}</style></defs><title>devider</title><path class="cls-1" d="M961,986c-34-37-97-87-185-119-82.47-30-146.41-45.86-203-55-115.72-18.68-205.73-13.22-255-10-41.05,2.68-103.3,7-183,27A932.34,932.34,0,0,0,0,874v206H972Z" transform="translate(0 -798.17)"/><path class="cls-1" d="M1242,1049" transform="translate(0 -798.17)"/><path class="cls-1" d="M978,969a648.68,648.68,0,0,1,107-74c83.34-46,155-60.94,221-75,124.8-26.59,223.54-22.49,275-20,90.84,4.39,157.88,18.55,178,23a1008.54,1008.54,0,0,1,161,50v207H972Z" transform="translate(0 -798.17)"/><polygon class="cls-1" points="960 187.83 978 170.83 972 281.83 960 187.83"/><rect class="cls-1" x="972" y="177.83" width="6" height="104"/><rect class="cls-1" x="977" y="171.83" width="2" height="7"/><rect class="cls-1" x="978" y="170.83" width="1" height="3"/><path class="cls-2" d="MNaN,NaN,NaN,NaN,NaN,NaN,NaN,NaN,NaN,NaNZ" transform="translate(0 -798.17)"/><rect class="cls-1" x="978" y="970" width="0.01" height="0.01" transform="translate(1956.01 1141.84) rotate(180)"/></svg>